<svg xmlns="http://www.w3.org/2000/svg" xmlns:xlink="http://www.w3.org/1999/xlink" viewBox="0 0 791.84 270.315">
  <defs>
    <style>
      .cls-1 {
        fill: url(#Gradiente_sem_nome_6);
      }

      .cls-2 {
        fill: url(#Gradiente_sem_nome_9);
      }

      .cls-3 {
        fill: url(#Gradiente_sem_nome_12);
      }

      .cls-4 {
        fill: #fff;
      }
    </style>
    <linearGradient id="Gradiente_sem_nome_6" data-name="Gradiente sem nome 6" x1="27.236" y1="59.197" x2="94.661" y2="22.938" gradientUnits="userSpaceOnUse">
      <stop offset="0" stop-color="#79ab43"/>
      <stop offset="1" stop-color="#527538"/>
    </linearGradient>
    <linearGradient id="Gradiente_sem_nome_9" data-name="Gradiente sem nome 9" x1="134.803" y1="134.071" x2="66.038" y2="98.392" gradientUnits="userSpaceOnUse">
      <stop offset="0" stop-color="#b4c138"/>
      <stop offset="1" stop-color="#7a7e34"/>
    </linearGradient>
    <linearGradient id="Gradiente_sem_nome_12" data-name="Gradiente sem nome 12" x1="143.743" y1="2.094" x2="144.348" y2="79.433" gradientUnits="userSpaceOnUse">
      <stop offset="0" stop-color="#289386"/>
      <stop offset="1" stop-color="#28685c"/>
    </linearGradient>
  </defs>
  <title>Logo2</title>
  <g id="Camada_2" data-name="Camada 2">
    <g id="Camada_1-2" data-name="Camada 1">
      <g>
        <g>
          <path class="cls-1" d="M55.568,113.385,2.7,19.037S.123,14.683.011,12.081A11.643,11.643,0,0,1,.5,8.12,12.089,12.089,0,0,1,4.25,2.332a11.016,11.016,0,0,1,7.472-2.3C25.3.376,84.253.056,84.261.071l17.368,31.1Z"/>
          <path class="cls-2" d="M165.494,81.52l-2.417,4.412s-49.569,88.25-51.629,91.9c-2.467,4.368-6.253,6.406-11.232,5.9a9.791,9.791,0,0,1-7.727-4.884c-2.924-4.967-36.921-65.463-36.921-65.463L73.422,81.52Z"/>
          <path class="cls-3" d="M84.261.071S156.693.07,192.216,0c8.192-.016,13.481,9,9.956,16.055-2.147,4.3-36.678,65.465-36.678,65.465H129.741Z"/>
        </g>
        <g>
          <path class="cls-4" d="M324.858,34.354a15.455,15.455,0,0,1,7.7,6.281c2.175,3.761,2.143,8.354,2.069,12.7-.522,30.574-.3,61.165-.284,91.742q0,1.89,0,3.78c0,.941-.269,1.249-1.221,1.246q-14.062-.048-28.125-.008a.911.911,0,0,1-1.149-1.087q.081-53.234.064-106.464,0-4.995,0-9.989a.81.81,0,0,1,.986-1c6.029.012,12.827.395,18.582,2.3Q324.175,34.076,324.858,34.354Z"/>
          <path class="cls-4" d="M357.3,61.391q1.282-2.369,2.783-4.6A61,61,0,0,1,387.23,34.748c11.591-4.795,26.653-7.174,38.818-3.468,5.02,1.53,9.933,4.449,12.285,9.141,1.758,3.507,1.839,7.525,1.275,11.333-.245,1.656-.719,8.044-3.291,7.019a49.918,49.918,0,0,0-35.148-.626c-20.832,7.752-24.092,39.367-12.389,55.839,7.855,11.055,24.691,15.646,37.527,12.333,3.1-.8,6.153-1.672,9.226-2.66a1.339,1.339,0,0,1,.746-.09c.451.123.635.652.742,1.108,1.695,7.213,2.767,14.586,4.343,21.831.647,2.978-17.062,5.655-19.683,6a75.966,75.966,0,0,1-21.8-.177c-13.116-2.085-25.743-8.188-34.728-17.97C347.7,115.36,345.1,83.924,357.3,61.391Z"/>
          <path class="cls-4" d="M280.283,92.79c13.67,16.039,7.523,41.755-9.767,52.49a38.594,38.594,0,0,1-7.943,3.76c-1.485.5-3,.919-4.525,1.29a83.919,83.919,0,0,1-27.1,2.017q-3.252-.285-6.477-.819-1.626-.268-3.242-.6c-1.066-.22-2.141-.57-3.215-.728a30.994,30.994,0,0,1-4.268-1.212l-4.466-1.348a18.616,18.616,0,0,1-3.025-1.108,2.7,2.7,0,0,1-1.036-.794,2.534,2.534,0,0,1-.24-1.984c.914-4.268,1.9-8.531,2.839-12.8l.159-.724c.708-3.221,1.439-6.442,2.1-9.672a.922.922,0,0,1,.391-.646.815.815,0,0,1,.607-.039,20.3,20.3,0,0,1,2.726,1.213q1.422.633,2.863,1.226c1.926.789,3.877,1.518,5.855,2.164a58.4,58.4,0,0,0,12.053,2.669,40.146,40.146,0,0,0,11.586-.4,17.525,17.525,0,0,0,7.06-2.719,8.779,8.779,0,0,0,3.819-6.317,9.012,9.012,0,0,0-2.662-6.574,21.024,21.024,0,0,0-5.984-4.109c-10.4-5.243-22.393-7.8-31.194-15.433A33.728,33.728,0,0,1,206.53,58.711a32.1,32.1,0,0,1,4.48-10.6,38.37,38.37,0,0,1,19.974-14.843,71.353,71.353,0,0,1,19.252-3.352c6.412-.342,13.06-.12,18.906,2.538a17.164,17.164,0,0,1,7.434,6.453A18.077,18.077,0,0,1,279.09,49.72c-.056,1.029-.158,2.054-.275,3.077q-.245,2.132-.561,4.253c-.181,1.215-.23,2.53-1.347,3.29a2.411,2.411,0,0,1-1.97.194c-1.884-.51-3.5-1.664-5.323-2.323a48.065,48.065,0,0,0-21.579-2.554,17.1,17.1,0,0,0-7.783,2.474,7.9,7.9,0,0,0-3.687,6.944c.353,3.749,3.943,6.263,7.31,7.952,11.513,5.776,24.968,8.484,34.226,17.441Q279.265,91.593,280.283,92.79Z"/>
          <path class="cls-4" d="M791.352,110.41q-.143-.778-.328-1.556c-2.731-11.443-11.038-17.74-20.87-22.963a26.45,26.45,0,0,0,13.564-40.134c-4.276-6.212-11.088-10.354-18.289-12.592S750.6,30.44,743.063,30.347a265.388,265.388,0,0,0-38.112,2.445c-3.418.453-5.685,1.464-5.632,5.218.228,15.98.492,31.964.544,47.939q.087,26.981-.206,53.959c-.034,3.1-1.578,9.691,2.6,10.851,4.065,1.129,9.06,1,13.271,1.456a131.149,131.149,0,0,0,14.186.9,145.491,145.491,0,0,0,28.9-2.941,59.113,59.113,0,0,0,13.247-4.041C785.269,139.873,794.053,125.154,791.352,110.41ZM731.56,55.089c0-2.239,8.833-1.484,10.33-1.419a25.586,25.586,0,0,1,7.125,1.132,11.834,11.834,0,0,1,5.848,4.068,10.94,10.94,0,0,1,1.954,5.995,11.191,11.191,0,0,1-1.714,6.558c-1.921,2.919-5.312,4.584-8.731,5.307a39.5,39.5,0,0,1-13.494.418c-1.164-.17-1.319-.358-1.319-1.538Q731.556,65.349,731.56,55.089Zm26.812,63.556a11.6,11.6,0,0,1-1.9,4.378,14.785,14.785,0,0,1-7.514,5.088c-3.715,1.171-7.683,1.215-11.578,1.136q-2.179-.044-4.357-.136c-1.367-.057-1.448-.841-1.451-2.063l-.039-15.113-.019-7.658c0-2.192-.263-3.741,2.389-3.875,2.787-.141,5.577-.282,8.366-.217a26.932,26.932,0,0,1,7.463,1.046,12.066,12.066,0,0,1,9.018,11.527A21.02,21.02,0,0,1,758.372,118.645Z"/>
          <path class="cls-4" d="M561.183,87.824c-.666-15.749-6.768-31.287-17.815-42.486-14.9-15.1-39.969-21.981-59.743-12.8a64.523,64.523,0,0,0-34.567,41.4A66.311,66.311,0,0,0,452.7,118.1c7.161,15.773,21.125,28.633,37.861,33.1A53.663,53.663,0,0,0,523.9,149.26c19.582-7.76,33.244-27.29,36.527-48.1A67.408,67.408,0,0,0,561.183,87.824Zm-32.512,6.6a55.326,55.326,0,0,1-2.077,11.5c-1.659,5.668-4.29,11.178-8.477,15.344s-10.083,6.85-15.961,6.277a20.67,20.67,0,0,1-12.728-6.706c-13.105-13.936-13.463-37.738-4.627-53.865,7.623-13.912,24.451-17.323,35.1-4.667a37.134,37.134,0,0,1,7.108,14.333A53.475,53.475,0,0,1,528.671,94.426Z"/>
          <path class="cls-4" d="M686.12,84.7a64.985,64.985,0,0,0-13.666-34.8c-9.522-11.878-23.834-19.981-39-21.294-29.352-2.543-54.117,21.191-59.961,48.749a64.786,64.786,0,0,0-1.287,17.836,65.864,65.864,0,0,0,22.2,44.641,56.113,56.113,0,0,0,13.952,9.024c17.319,7.7,38.646,4.386,53.718-7.106s23.808-30.381,24.289-49.328A67.9,67.9,0,0,0,686.12,84.7Zm-34.6,21.266a48.37,48.37,0,0,1-3.013,7.314c-3.5,6.833-9.289,13.241-16.888,14.337a19.33,19.33,0,0,1-14.374-4.254,31.914,31.914,0,0,1-9.072-12.263c-6.194-13.819-6.863-32.848,2.508-45.49,4.288-5.785,9.007-11.283,16.762-11.9a19.716,19.716,0,0,1,14.075,5,32.981,32.981,0,0,1,8.611,12.512A50.811,50.811,0,0,1,651.524,105.963Z"/>
        </g>
        <g>
          <path class="cls-4" d="M251.79,237.764V258.2H242V205.9H258.05a33.739,33.739,0,0,1,9.226,1.1,17.65,17.65,0,0,1,6.3,3.092,11.959,11.959,0,0,1,3.6,4.756,16.571,16.571,0,0,1,.364,11.086,14.408,14.408,0,0,1-2.257,4.268,15.169,15.169,0,0,1-3.638,3.363,19.15,19.15,0,0,1-4.932,2.315,9.679,9.679,0,0,1,3.2,3L283.089,258.2h-8.808a4.315,4.315,0,0,1-2.165-.506,4.408,4.408,0,0,1-1.51-1.447L259.542,239.5a3.878,3.878,0,0,0-1.364-1.339,4.829,4.829,0,0,0-2.2-.4Zm0-6.981H257.9a15.247,15.247,0,0,0,4.822-.687,9.33,9.33,0,0,0,3.385-1.9,7.627,7.627,0,0,0,1.983-2.875,9.9,9.9,0,0,0,.655-3.653,7.41,7.41,0,0,0-2.638-6.112q-2.64-2.135-8.062-2.134h-6.26Z"/>
          <path class="cls-4" d="M304.27,220.511a18.245,18.245,0,0,1,6.5,1.122,14.257,14.257,0,0,1,5.113,3.273,14.943,14.943,0,0,1,3.349,5.281,19.817,19.817,0,0,1,1.2,7.143,12.741,12.741,0,0,1-.092,1.681,2.675,2.675,0,0,1-.327,1.049,1.324,1.324,0,0,1-.637.543,2.74,2.74,0,0,1-1.019.162H295.28q.4,5.715,3.094,8.391a9.672,9.672,0,0,0,7.133,2.677,12.41,12.41,0,0,0,3.767-.507,17.7,17.7,0,0,0,2.766-1.121q1.182-.614,2.074-1.121a3.5,3.5,0,0,1,1.729-.506,1.952,1.952,0,0,1,.946.217,2.1,2.1,0,0,1,.692.615l2.62,3.255a14.958,14.958,0,0,1-3.348,2.911,18.781,18.781,0,0,1-3.876,1.881,21.412,21.412,0,0,1-4.112,1,29.784,29.784,0,0,1-4.059.289,20.059,20.059,0,0,1-7.242-1.284,16.2,16.2,0,0,1-5.822-3.8,17.791,17.791,0,0,1-3.895-6.22,23.948,23.948,0,0,1-1.419-8.59,20.4,20.4,0,0,1,1.238-7.143,17.145,17.145,0,0,1,3.547-5.824,16.73,16.73,0,0,1,5.642-3.924A18.689,18.689,0,0,1,304.27,220.511Zm.181,6.4a8.345,8.345,0,0,0-6.15,2.206,10.855,10.855,0,0,0-2.838,6.258h16.886a11.057,11.057,0,0,0-.473-3.274,7.539,7.539,0,0,0-1.456-2.694,6.888,6.888,0,0,0-2.474-1.827A8.483,8.483,0,0,0,304.451,226.913Z"/>
          <path class="cls-4" d="M327.742,270.315V221.091h5.5a2.7,2.7,0,0,1,1.492.4,1.863,1.863,0,0,1,.8,1.23l.728,3.436a18.849,18.849,0,0,1,5.187-4.16,14.166,14.166,0,0,1,6.86-1.591,12.3,12.3,0,0,1,5.586,1.266,12.521,12.521,0,0,1,4.367,3.671,17.57,17.57,0,0,1,2.839,5.932,29.671,29.671,0,0,1,1,8.083,25.312,25.312,0,0,1-1.128,7.7,18.826,18.826,0,0,1-3.221,6.148,14.57,14.57,0,0,1-11.7,5.534,13.431,13.431,0,0,1-5.368-.959,13.1,13.1,0,0,1-3.948-2.658v15.191Zm17.469-42.859a9.227,9.227,0,0,0-4.785,1.175,13.784,13.784,0,0,0-3.694,3.31v16.637a8.536,8.536,0,0,0,3.33,2.622,10.071,10.071,0,0,0,3.876.742,8.758,8.758,0,0,0,3.693-.76,7.162,7.162,0,0,0,2.8-2.315,11.4,11.4,0,0,0,1.764-3.924,22.213,22.213,0,0,0,.62-5.588,24.692,24.692,0,0,0-.528-5.515,10.636,10.636,0,0,0-1.51-3.672,5.971,5.971,0,0,0-2.384-2.061A7.479,7.479,0,0,0,345.211,227.456Z"/>
          <path class="cls-4" d="M384.843,220.511a20.581,20.581,0,0,1,7.588,1.339,16.375,16.375,0,0,1,5.805,3.8,16.781,16.781,0,0,1,3.711,6,24.693,24.693,0,0,1,0,15.878,17.162,17.162,0,0,1-3.711,6.04,16.14,16.14,0,0,1-5.805,3.834,22.236,22.236,0,0,1-15.194,0,16.267,16.267,0,0,1-5.841-3.834,17.213,17.213,0,0,1-3.749-6.04,24.394,24.394,0,0,1,0-15.878,16.831,16.831,0,0,1,3.749-6,16.505,16.505,0,0,1,5.841-3.8A20.72,20.72,0,0,1,384.843,220.511Zm0,31.358q4.657,0,6.9-3.111t2.239-9.114q0-6-2.239-9.15t-6.9-3.147q-4.731,0-6.987,3.165t-2.257,9.132q0,5.968,2.257,9.1T384.843,251.869Z"/>
          <path class="cls-4" d="M410.281,258.2V221.091h5.278a2.842,2.842,0,0,1,1.929.506,2.9,2.9,0,0,1,.727,1.736l.546,4.485a17.647,17.647,0,0,1,4.695-5.426A9.926,9.926,0,0,1,429.5,220.4a7.846,7.846,0,0,1,4.586,1.266l-1.165,6.691a1.381,1.381,0,0,1-.472.922,1.615,1.615,0,0,1-.984.271,6.159,6.159,0,0,1-1.492-.253,10.086,10.086,0,0,0-2.511-.253,7.659,7.659,0,0,0-4.8,1.537,11.866,11.866,0,0,0-3.384,4.5V258.2Z"/>
          <path class="cls-4" d="M452.279,258.777q-4.84,0-7.46-2.73a10.438,10.438,0,0,1-2.622-7.541V227.781h-3.784a1.822,1.822,0,0,1-1.256-.47,1.792,1.792,0,0,1-.527-1.41v-3.545l6-.976,1.893-10.127a1.784,1.784,0,0,1,.672-1.121,2.14,2.14,0,0,1,1.329-.4h4.658v11.682h9.826v6.365h-9.826v20.11a3.927,3.927,0,0,0,.874,2.712,2.97,2.97,0,0,0,2.329.977,4.278,4.278,0,0,0,1.4-.2,7.673,7.673,0,0,0,.983-.416c.278-.145.527-.283.746-.416a1.256,1.256,0,0,1,.655-.2,1.034,1.034,0,0,1,.654.2,3.037,3.037,0,0,1,.546.6l2.694,4.34a13.626,13.626,0,0,1-4.513,2.459A16.877,16.877,0,0,1,452.279,258.777Z"/>
        </g>
      </g>
    </g>
  </g>
</svg>
