<svg xmlns="http://www.w3.org/2000/svg" xmlns:xlink="http://www.w3.org/1999/xlink" viewBox="0 0 493.78 114.62">
  <defs>
    <style>
      .cls-1 {
        fill: url(#Gradiente_sem_nome_6);
      }

      .cls-2 {
        fill: url(#Gradiente_sem_nome_9);
      }

      .cls-3 {
        fill: url(#Gradiente_sem_nome_12);
      }

      .cls-4 {
        fill: #fff;
      }
    </style>
    <linearGradient id="Gradiente_sem_nome_6" data-name="Gradiente sem nome 6" x1="16.984" y1="36.914" x2="59.029" y2="14.304" gradientUnits="userSpaceOnUse">
      <stop offset="0" stop-color="#79ab43"/>
      <stop offset="1" stop-color="#527538"/>
    </linearGradient>
    <linearGradient id="Gradiente_sem_nome_9" data-name="Gradiente sem nome 9" x1="84.061" y1="83.605" x2="41.18" y2="61.356" gradientUnits="userSpaceOnUse">
      <stop offset="0" stop-color="#b4c138"/>
      <stop offset="1" stop-color="#7a7e34"/>
    </linearGradient>
    <linearGradient id="Gradiente_sem_nome_12" data-name="Gradiente sem nome 12" x1="89.636" y1="1.306" x2="90.013" y2="49.533" gradientUnits="userSpaceOnUse">
      <stop offset="0" stop-color="#289386"/>
      <stop offset="1" stop-color="#28685c"/>
    </linearGradient>
  </defs>
  <title>Logo3</title>
  <g id="Camada_2" data-name="Camada 2">
    <g id="Camada_1-2" data-name="Camada 1">
      <g>
        <g>
          <path class="cls-1" d="M34.651,70.706,1.683,11.871S.077,9.156.007,7.533a7.27,7.27,0,0,1,.307-2.47A7.548,7.548,0,0,1,2.65,1.454,6.875,6.875,0,0,1,7.309.021c8.464.213,45.23.014,45.235.023l10.83,19.4Z"/>
          <path class="cls-2" d="M103.2,50.835l-1.508,2.751S70.782,108.617,69.5,110.892a6.746,6.746,0,0,1-7,3.681,6.107,6.107,0,0,1-4.818-3.046c-1.824-3.1-23.024-40.821-23.024-40.821L45.785,50.835Z"/>
          <path class="cls-3" d="M52.544.044S97.711.044,119.863,0a7.022,7.022,0,0,1,6.209,10.012C124.733,12.69,103.2,50.835,103.2,50.835H80.905Z"/>
        </g>
        <g>
          <path class="cls-4" d="M202.577,21.423a9.633,9.633,0,0,1,4.8,3.916c1.357,2.346,1.337,5.21,1.291,7.919-.326,19.065-.189,38.142-.178,57.209q0,1.179,0,2.357c0,.587-.168.779-.762.777q-8.769-.03-17.538,0a.568.568,0,0,1-.717-.678q.051-33.2.04-66.39,0-3.114,0-6.229a.5.5,0,0,1,.614-.625,38.409,38.409,0,0,1,11.588,1.432Q202.151,21.249,202.577,21.423Z"/>
          <path class="cls-4" d="M222.807,38.283q.8-1.477,1.736-2.869a38.028,38.028,0,0,1,16.928-13.745c7.228-2.991,16.621-4.474,24.206-2.163,3.131.954,6.194,2.774,7.661,5.7a11.814,11.814,0,0,1,.795,7.067c-.153,1.033-.448,5.016-2.052,4.377a31.131,31.131,0,0,0-21.918-.39c-12.99,4.834-15.023,24.548-7.725,34.82,4.9,6.894,15.4,9.757,23.4,7.691,1.932-.5,3.837-1.043,5.753-1.659a.833.833,0,0,1,.465-.056c.282.076.4.406.463.691,1.057,4.5,1.726,9.1,2.708,13.613.4,1.857-10.639,3.527-12.274,3.741a47.369,47.369,0,0,1-13.593-.11,37.409,37.409,0,0,1-21.656-11.206C216.823,71.937,215.2,52.334,222.807,38.283Z"/>
          <path class="cls-4" d="M174.78,57.862c8.525,10,4.692,26.038-6.09,32.733a24.193,24.193,0,0,1-4.953,2.345c-.926.314-1.871.573-2.822.8A52.345,52.345,0,0,1,144.014,95q-2.028-.177-4.038-.51-1.014-.168-2.022-.376c-.665-.137-1.335-.355-2-.454a19.088,19.088,0,0,1-2.661-.756l-2.785-.84a11.606,11.606,0,0,1-1.887-.691,1.691,1.691,0,0,1-.646-.495,1.578,1.578,0,0,1-.149-1.237c.569-2.662,1.184-5.32,1.77-7.981l.1-.452c.442-2.008.9-4.017,1.308-6.031a.572.572,0,0,1,.244-.4.508.508,0,0,1,.378-.025,12.5,12.5,0,0,1,1.7.757q.888.395,1.786.764c1.2.492,2.417.946,3.65,1.349a36.456,36.456,0,0,0,7.517,1.665,25.073,25.073,0,0,0,7.225-.25,10.924,10.924,0,0,0,4.4-1.7,5.478,5.478,0,0,0,2.382-3.939,5.618,5.618,0,0,0-1.661-4.1,13.112,13.112,0,0,0-3.731-2.563c-6.488-3.269-13.964-4.863-19.452-9.623a21.033,21.033,0,0,1-6.649-20.505A20.017,20.017,0,0,1,131.583,30a23.928,23.928,0,0,1,12.455-9.257,44.517,44.517,0,0,1,12-2.09c4-.213,8.145-.074,11.79,1.583a10.705,10.705,0,0,1,4.636,4.024,11.277,11.277,0,0,1,1.568,6.745c-.035.641-.1,1.28-.172,1.918q-.153,1.329-.35,2.653c-.113.757-.143,1.577-.84,2.051a1.5,1.5,0,0,1-1.228.121c-1.175-.318-2.183-1.037-3.32-1.449a29.966,29.966,0,0,0-13.456-1.592,10.661,10.661,0,0,0-4.853,1.543,4.93,4.93,0,0,0-2.3,4.33c.221,2.338,2.46,3.906,4.559,4.959,7.18,3.6,15.57,5.29,21.343,10.875Q174.146,57.116,174.78,57.862Z"/>
          <path class="cls-4" d="M493.476,68.85c-.059-.323-.127-.647-.2-.97-1.7-7.136-6.883-11.063-13.014-14.32a16.493,16.493,0,0,0,8.458-25.027,21.359,21.359,0,0,0-11.4-7.852,48.9,48.9,0,0,0-13.947-1.757A165.618,165.618,0,0,0,439.6,20.448c-2.131.283-3.545.913-3.512,3.255.143,9.964.307,19.932.339,29.894q.056,16.824-.128,33.647c-.021,1.934-.984,6.044,1.621,6.767,2.535.7,5.65.626,8.275.908a81.523,81.523,0,0,0,8.847.562,90.669,90.669,0,0,0,18.02-1.833,36.913,36.913,0,0,0,8.261-2.52C489.682,87.223,495.16,78.044,493.476,68.85Zm-37.286-34.5c0-1.4,5.509-.926,6.442-.885a15.914,15.914,0,0,1,4.443.706,7.378,7.378,0,0,1,3.647,2.537,6.817,6.817,0,0,1,1.218,3.738,6.976,6.976,0,0,1-1.069,4.089,8.481,8.481,0,0,1-5.444,3.31,24.683,24.683,0,0,1-8.415.261c-.726-.106-.822-.224-.822-.96Q456.189,40.752,456.19,34.353Zm16.72,39.633a7.232,7.232,0,0,1-1.187,2.73,9.221,9.221,0,0,1-4.685,3.172,22.461,22.461,0,0,1-7.22.709q-1.359-.028-2.717-.085c-.853-.036-.9-.525-.9-1.286l-.024-9.425-.012-4.775c0-1.367-.164-2.333,1.49-2.417,1.737-.088,3.477-.175,5.217-.135a16.814,16.814,0,0,1,4.653.652,7.523,7.523,0,0,1,5.624,7.188A13.115,13.115,0,0,1,472.91,73.986Z"/>
          <path class="cls-4" d="M349.946,54.766a40.262,40.262,0,0,0-11.109-26.494c-9.291-9.419-24.925-13.707-37.256-7.982a40.236,40.236,0,0,0-21.555,25.818,41.353,41.353,0,0,0,2.27,27.536c4.465,9.836,13.173,17.856,23.61,20.643A33.462,33.462,0,0,0,326.7,93.076c12.211-4.839,20.73-17.017,22.777-29.992A42.073,42.073,0,0,0,349.946,54.766Zm-20.274,4.117a34.522,34.522,0,0,1-1.3,7.172,22.083,22.083,0,0,1-5.287,9.569,12.743,12.743,0,0,1-9.953,3.913,12.886,12.886,0,0,1-7.937-4.181c-8.172-8.69-8.395-23.533-2.885-33.59,4.753-8.675,15.247-10.8,21.889-2.91a23.151,23.151,0,0,1,4.433,8.938A33.346,33.346,0,0,1,329.672,58.883Z"/>
          <path class="cls-4" d="M427.854,52.816a40.528,40.528,0,0,0-8.521-21.7,35.672,35.672,0,0,0-24.321-13.279c-18.3-1.585-33.747,13.215-37.391,30.4a40.408,40.408,0,0,0-.8,11.122,41.064,41.064,0,0,0,13.844,27.837,34.967,34.967,0,0,0,8.7,5.628c10.8,4.8,24.1,2.735,33.5-4.431s14.846-18.946,15.146-30.761A42.264,42.264,0,0,0,427.854,52.816ZM406.281,66.077a30.091,30.091,0,0,1-1.879,4.561c-2.182,4.261-5.793,8.257-10.531,8.94a12.051,12.051,0,0,1-8.963-2.652,19.916,19.916,0,0,1-5.658-7.647c-3.862-8.618-4.279-20.484,1.564-28.367,2.675-3.608,5.617-7.036,10.453-7.422a12.286,12.286,0,0,1,8.777,3.115,20.566,20.566,0,0,1,5.37,7.8A31.689,31.689,0,0,1,406.281,66.077Z"/>
        </g>
      </g>
    </g>
  </g>
</svg>
