<svg xmlns="http://www.w3.org/2000/svg" viewBox="0 0 415.14 376.314">
  <defs>
    <style>
      .cls-1, .cls-2 {
        fill: #5c5b5f;
      }

      .cls-2 {
        stroke: #5c5b5f;
        stroke-miterlimit: 10;
      }
    </style>
  </defs>
  <title>Ativo 8</title>
  <g id="Camada_2" data-name="Camada 2">
    <g id="Camada_1-2" data-name="Camada 1">
      <g>
        <path class="cls-1" d="M315.5,335.856c-13.667,0-23.974-10.822-23.974-25.174s10.307-25.175,23.974-25.175c14.117,0,23.976,10.352,23.976,25.175C339.475,325.269,329.392,335.856,315.5,335.856Zm0-41.239c-8.751,0-14.863,6.606-14.863,16.065s6.112,16.065,14.863,16.065c8.892,0,14.866-6.456,14.866-16.065C330.365,300.923,324.53,294.617,315.5,294.617Zm15.617-26.939H299.884L295.012,98.93h40.976Zm-22.382-9.11h13.532l4.345-150.529H304.389Z"/>
        <path class="cls-2" d="M410.472,13.179A26.253,26.253,0,0,0,388.114.5h-.051C318.081.637,174.368.641,172.925.641h-7.666l.014.026-.668,0C136.53.786,51.1,1.14,28.473.567c-7.047-.17-13.037,1.7-17.834,5.58A28.247,28.247,0,0,0,1.721,19.8,27.767,27.767,0,0,0,.527,29.269c.255,5.954,4.937,14.2,5.95,15.915L110.584,230.969v0l1.237,2.2.078.139,3.845,6.862.006-.011c14.652,26.065,64.659,114.992,69.7,123.549a24.108,24.108,0,0,0,18.824,11.929,33.615,33.615,0,0,0,3.363.172c10.075,0,18.117-4.861,23.392-14.2,2.166-3.835,31.006-55.17,57.606-102.524l-.5-17.478c-28.34,50.452-62.574,111.39-64.938,115.576-4.072,7.206-9.962,10.314-18.014,9.5a15.112,15.112,0,0,1-11.973-7.541c-5.305-9.009-63.064-111.752-72.3-128.181l33.058-59H286.116l-.26-9h-19.65L180.592,9.64c30.829,0,146.841-.021,207.488-.14h.033a17.313,17.313,0,0,1,14.708,8.419,17.441,17.441,0,0,1,1.068,17.064c-2.942,5.886-37.558,67.41-58.046,103.765l-.557,19.317C362.664,127.253,408.4,46.083,411.94,39.007A26.381,26.381,0,0,0,410.472,13.179ZM255.9,162.963H159l48.529-86.616ZM202.383,67.125,128.419,199.138l-12.677,22.625L14.3,40.738l-.051-.089c-1.894-3.209-4.614-8.981-4.734-11.767a18.837,18.837,0,0,1,.77-6.32A19.433,19.433,0,0,1,16.3,13.146a17.174,17.174,0,0,1,11.252-3.59c.23,0,.461,0,.7.009,22.754.575,108.288.221,136.395.105l5.645-.023Z"/>
      </g>
    </g>
  </g>
</svg>
